<mxfile host="app.diagrams.net" modified="2022-03-07T12:28:47.275Z" agent="5.0 (X11; Linux x86_64) AppleWebKit/537.36 (KHTML, like Gecko) Chrome/98.0.4758.102 Safari/537.36" etag="DmJhvELcfr2x_cnL405P" version="16.6.2" type="github">
  <diagram id="nfS9oCo1meUTK1Tz_lBs" name="Page-1">
    <mxGraphModel dx="1097" dy="533" grid="1" gridSize="10" guides="1" tooltips="1" connect="1" arrows="1" fold="1" page="1" pageScale="1" pageWidth="1169" pageHeight="827" math="0" shadow="0">
      <root>
        <mxCell id="0" />
        <mxCell id="1" parent="0" />
        <mxCell id="XLAeXqXStdWNL6sDproD-1" value="" style="rounded=0;whiteSpace=wrap;html=1;fillColor=#FFE6CC;" vertex="1" parent="1">
          <mxGeometry x="310" y="130" width="550" height="340" as="geometry" />
        </mxCell>
        <mxCell id="XLAeXqXStdWNL6sDproD-2" value="&amp;lt;Query&amp;gt;" style="text;html=1;resizable=0;autosize=1;align=center;verticalAlign=middle;points=[];fillColor=#FFB570;strokeColor=none;rounded=0;" vertex="1" parent="1">
          <mxGeometry x="550" y="148" width="60" height="20" as="geometry" />
        </mxCell>
        <mxCell id="XLAeXqXStdWNL6sDproD-3" value="SELECT" style="text;html=1;resizable=0;autosize=1;align=center;verticalAlign=middle;points=[];fillColor=#999999;strokeColor=none;rounded=0;" vertex="1" parent="1">
          <mxGeometry x="320" y="194" width="60" height="20" as="geometry" />
        </mxCell>
        <mxCell id="XLAeXqXStdWNL6sDproD-4" value="&amp;lt;SelList&amp;gt;" style="text;html=1;resizable=0;autosize=1;align=center;verticalAlign=middle;points=[];fillColor=#B9E0A5;strokeColor=none;rounded=0;" vertex="1" parent="1">
          <mxGeometry x="405" y="194" width="70" height="20" as="geometry" />
        </mxCell>
        <mxCell id="XLAeXqXStdWNL6sDproD-5" value="FROM" style="text;html=1;resizable=0;autosize=1;align=center;verticalAlign=middle;points=[];fillColor=#999999;strokeColor=none;rounded=0;" vertex="1" parent="1">
          <mxGeometry x="500" y="194" width="50" height="20" as="geometry" />
        </mxCell>
        <mxCell id="XLAeXqXStdWNL6sDproD-6" value="&amp;lt;FromList&amp;gt;" style="text;html=1;resizable=0;autosize=1;align=center;verticalAlign=middle;points=[];fillColor=#CDA2BE;strokeColor=none;rounded=0;" vertex="1" parent="1">
          <mxGeometry x="572" y="194" width="80" height="20" as="geometry" />
        </mxCell>
        <mxCell id="XLAeXqXStdWNL6sDproD-7" value="WHERE" style="text;html=1;resizable=0;autosize=1;align=center;verticalAlign=middle;points=[];fillColor=#999999;strokeColor=none;rounded=0;" vertex="1" parent="1">
          <mxGeometry x="665" y="194" width="60" height="20" as="geometry" />
        </mxCell>
        <mxCell id="XLAeXqXStdWNL6sDproD-8" value="&amp;lt;Condition&amp;gt;" style="text;html=1;resizable=0;autosize=1;align=center;verticalAlign=middle;points=[];fillColor=#7EA6E0;strokeColor=none;rounded=0;" vertex="1" parent="1">
          <mxGeometry x="745" y="194" width="80" height="20" as="geometry" />
        </mxCell>
        <mxCell id="XLAeXqXStdWNL6sDproD-9" value="&amp;lt;Attriube&amp;gt;" style="text;html=1;resizable=0;autosize=1;align=center;verticalAlign=middle;points=[];fillColor=#B9E0A5;strokeColor=none;rounded=0;" vertex="1" parent="1">
          <mxGeometry x="362" y="237" width="70" height="20" as="geometry" />
        </mxCell>
        <mxCell id="XLAeXqXStdWNL6sDproD-11" value="&amp;lt;RelName&amp;gt;" style="text;html=1;resizable=0;autosize=1;align=center;verticalAlign=middle;points=[];fillColor=#CDA2BE;strokeColor=none;rounded=0;" vertex="1" parent="1">
          <mxGeometry x="479" y="237" width="80" height="20" as="geometry" />
        </mxCell>
        <mxCell id="XLAeXqXStdWNL6sDproD-13" value="&amp;lt;Attribute&amp;gt;" style="text;html=1;resizable=0;autosize=1;align=center;verticalAlign=middle;points=[];fillColor=#7EA6E0;strokeColor=none;rounded=0;" vertex="1" parent="1">
          <mxGeometry x="606" y="237" width="70" height="20" as="geometry" />
        </mxCell>
        <mxCell id="XLAeXqXStdWNL6sDproD-15" value="IN" style="text;html=1;resizable=0;autosize=1;align=center;verticalAlign=middle;points=[];fillColor=#999999;strokeColor=none;rounded=0;" vertex="1" parent="1">
          <mxGeometry x="715" y="237" width="30" height="20" as="geometry" />
        </mxCell>
        <mxCell id="XLAeXqXStdWNL6sDproD-16" value="(&amp;nbsp; &amp;nbsp; &amp;nbsp; &amp;nbsp; &amp;nbsp; &amp;nbsp; &amp;nbsp; &amp;nbsp; )" style="text;html=1;resizable=0;autosize=1;align=center;verticalAlign=middle;points=[];fillColor=#7EA6E0;strokeColor=none;rounded=0;" vertex="1" parent="1">
          <mxGeometry x="770" y="237" width="80" height="20" as="geometry" />
        </mxCell>
        <mxCell id="XLAeXqXStdWNL6sDproD-17" value="&amp;lt;Query&amp;gt;" style="text;html=1;resizable=0;autosize=1;align=center;verticalAlign=middle;points=[];fillColor=#FFB570;strokeColor=none;rounded=0;" vertex="1" parent="1">
          <mxGeometry x="728" y="283" width="60" height="20" as="geometry" />
        </mxCell>
        <mxCell id="XLAeXqXStdWNL6sDproD-18" value="SELECT" style="text;html=1;resizable=0;autosize=1;align=center;verticalAlign=middle;points=[];fillColor=#999999;strokeColor=none;rounded=0;" vertex="1" parent="1">
          <mxGeometry x="333" y="352" width="60" height="20" as="geometry" />
        </mxCell>
        <mxCell id="XLAeXqXStdWNL6sDproD-19" value="&amp;lt;SelList&amp;gt;" style="text;html=1;resizable=0;autosize=1;align=center;verticalAlign=middle;points=[];fillColor=#B9E0A5;strokeColor=none;rounded=0;" vertex="1" parent="1">
          <mxGeometry x="418" y="352" width="70" height="20" as="geometry" />
        </mxCell>
        <mxCell id="XLAeXqXStdWNL6sDproD-20" value="FROM" style="text;html=1;resizable=0;autosize=1;align=center;verticalAlign=middle;points=[];fillColor=#999999;strokeColor=none;rounded=0;" vertex="1" parent="1">
          <mxGeometry x="513" y="352" width="50" height="20" as="geometry" />
        </mxCell>
        <mxCell id="XLAeXqXStdWNL6sDproD-21" value="&amp;lt;FromList&amp;gt;" style="text;html=1;resizable=0;autosize=1;align=center;verticalAlign=middle;points=[];fillColor=#CDA2BE;strokeColor=none;rounded=0;" vertex="1" parent="1">
          <mxGeometry x="585" y="352" width="80" height="20" as="geometry" />
        </mxCell>
        <mxCell id="XLAeXqXStdWNL6sDproD-22" value="WHERE" style="text;html=1;resizable=0;autosize=1;align=center;verticalAlign=middle;points=[];fillColor=#999999;strokeColor=none;rounded=0;" vertex="1" parent="1">
          <mxGeometry x="678" y="352" width="60" height="20" as="geometry" />
        </mxCell>
        <mxCell id="XLAeXqXStdWNL6sDproD-23" value="&amp;lt;Condition&amp;gt;" style="text;html=1;resizable=0;autosize=1;align=center;verticalAlign=middle;points=[];fillColor=#7EA6E0;strokeColor=none;rounded=0;" vertex="1" parent="1">
          <mxGeometry x="758" y="352" width="80" height="20" as="geometry" />
        </mxCell>
        <mxCell id="XLAeXqXStdWNL6sDproD-24" value="&amp;lt;Attriube&amp;gt;" style="text;html=1;resizable=0;autosize=1;align=center;verticalAlign=middle;points=[];fillColor=#B9E0A5;strokeColor=none;rounded=0;" vertex="1" parent="1">
          <mxGeometry x="375" y="413" width="70" height="20" as="geometry" />
        </mxCell>
        <mxCell id="XLAeXqXStdWNL6sDproD-25" value="&amp;lt;RelName&amp;gt;" style="text;html=1;resizable=0;autosize=1;align=center;verticalAlign=middle;points=[];fillColor=#CDA2BE;strokeColor=none;rounded=0;" vertex="1" parent="1">
          <mxGeometry x="492" y="413" width="80" height="20" as="geometry" />
        </mxCell>
        <mxCell id="XLAeXqXStdWNL6sDproD-26" value="&amp;lt;Attribute&amp;gt;" style="text;html=1;resizable=0;autosize=1;align=center;verticalAlign=middle;points=[];fillColor=#7EA6E0;strokeColor=none;rounded=0;" vertex="1" parent="1">
          <mxGeometry x="619" y="413" width="70" height="20" as="geometry" />
        </mxCell>
        <mxCell id="XLAeXqXStdWNL6sDproD-27" value="LIKE" style="text;html=1;resizable=0;autosize=1;align=center;verticalAlign=middle;points=[];fillColor=#999999;strokeColor=none;rounded=0;" vertex="1" parent="1">
          <mxGeometry x="723" y="413" width="40" height="20" as="geometry" />
        </mxCell>
        <mxCell id="XLAeXqXStdWNL6sDproD-28" value="&amp;lt;Pattern&amp;gt;" style="text;html=1;resizable=0;autosize=1;align=center;verticalAlign=middle;points=[];fillColor=#7EA6E0;strokeColor=none;rounded=0;" vertex="1" parent="1">
          <mxGeometry x="788" y="413" width="70" height="20" as="geometry" />
        </mxCell>
        <mxCell id="XLAeXqXStdWNL6sDproD-29" value="" style="endArrow=none;html=1;rounded=0;exitX=0.473;exitY=-0.109;exitDx=0;exitDy=0;exitPerimeter=0;entryX=0.42;entryY=1.09;entryDx=0;entryDy=0;entryPerimeter=0;" edge="1" parent="1" source="XLAeXqXStdWNL6sDproD-3" target="XLAeXqXStdWNL6sDproD-2">
          <mxGeometry width="50" height="50" relative="1" as="geometry">
            <mxPoint x="650" y="360" as="sourcePoint" />
            <mxPoint x="700" y="310" as="targetPoint" />
          </mxGeometry>
        </mxCell>
        <mxCell id="XLAeXqXStdWNL6sDproD-30" value="" style="endArrow=none;html=1;rounded=0;exitX=0.506;exitY=0.01;exitDx=0;exitDy=0;exitPerimeter=0;entryX=0.407;entryY=1.03;entryDx=0;entryDy=0;entryPerimeter=0;" edge="1" parent="1" source="XLAeXqXStdWNL6sDproD-4" target="XLAeXqXStdWNL6sDproD-2">
          <mxGeometry width="50" height="50" relative="1" as="geometry">
            <mxPoint x="357.8399999999999" y="201.82" as="sourcePoint" />
            <mxPoint x="585.2" y="179.8" as="targetPoint" />
          </mxGeometry>
        </mxCell>
        <mxCell id="XLAeXqXStdWNL6sDproD-31" value="" style="endArrow=none;html=1;rounded=0;exitX=0.448;exitY=-0.03;exitDx=0;exitDy=0;exitPerimeter=0;entryX=0.46;entryY=1.01;entryDx=0;entryDy=0;entryPerimeter=0;" edge="1" parent="1" source="XLAeXqXStdWNL6sDproD-5" target="XLAeXqXStdWNL6sDproD-2">
          <mxGeometry width="50" height="50" relative="1" as="geometry">
            <mxPoint x="367.8399999999999" y="211.82" as="sourcePoint" />
            <mxPoint x="595.2" y="189.8" as="targetPoint" />
          </mxGeometry>
        </mxCell>
        <mxCell id="XLAeXqXStdWNL6sDproD-32" value="" style="endArrow=none;html=1;rounded=0;exitX=0.5;exitY=-0.03;exitDx=0;exitDy=0;exitPerimeter=0;entryX=0.427;entryY=0.97;entryDx=0;entryDy=0;entryPerimeter=0;" edge="1" parent="1" source="XLAeXqXStdWNL6sDproD-6" target="XLAeXqXStdWNL6sDproD-2">
          <mxGeometry width="50" height="50" relative="1" as="geometry">
            <mxPoint x="377.8399999999999" y="221.82" as="sourcePoint" />
            <mxPoint x="605.2" y="199.8" as="targetPoint" />
          </mxGeometry>
        </mxCell>
        <mxCell id="XLAeXqXStdWNL6sDproD-33" value="" style="endArrow=none;html=1;rounded=0;exitX=0.457;exitY=-0.05;exitDx=0;exitDy=0;exitPerimeter=0;entryX=0.413;entryY=0.99;entryDx=0;entryDy=0;entryPerimeter=0;" edge="1" parent="1" source="XLAeXqXStdWNL6sDproD-7" target="XLAeXqXStdWNL6sDproD-2">
          <mxGeometry width="50" height="50" relative="1" as="geometry">
            <mxPoint x="622" y="203.39999999999998" as="sourcePoint" />
            <mxPoint x="585.6200000000001" y="177.39999999999998" as="targetPoint" />
          </mxGeometry>
        </mxCell>
        <mxCell id="XLAeXqXStdWNL6sDproD-34" value="" style="endArrow=none;html=1;rounded=0;exitX=0.478;exitY=-0.03;exitDx=0;exitDy=0;exitPerimeter=0;" edge="1" parent="1" source="XLAeXqXStdWNL6sDproD-8">
          <mxGeometry width="50" height="50" relative="1" as="geometry">
            <mxPoint x="632" y="213.39999999999998" as="sourcePoint" />
            <mxPoint x="580" y="170" as="targetPoint" />
          </mxGeometry>
        </mxCell>
        <mxCell id="XLAeXqXStdWNL6sDproD-35" value="" style="endArrow=none;html=1;rounded=0;exitX=0.456;exitY=-0.083;exitDx=0;exitDy=0;exitPerimeter=0;entryX=0.441;entryY=1.067;entryDx=0;entryDy=0;entryPerimeter=0;" edge="1" parent="1" source="XLAeXqXStdWNL6sDproD-9" target="XLAeXqXStdWNL6sDproD-4">
          <mxGeometry width="50" height="50" relative="1" as="geometry">
            <mxPoint x="642" y="223.39999999999998" as="sourcePoint" />
            <mxPoint x="605.6200000000001" y="197.39999999999998" as="targetPoint" />
          </mxGeometry>
        </mxCell>
        <mxCell id="XLAeXqXStdWNL6sDproD-36" value="" style="endArrow=none;html=1;rounded=0;entryX=0.495;entryY=1.114;entryDx=0;entryDy=0;entryPerimeter=0;exitX=0.419;exitY=-0.036;exitDx=0;exitDy=0;exitPerimeter=0;" edge="1" parent="1" source="XLAeXqXStdWNL6sDproD-11" target="XLAeXqXStdWNL6sDproD-6">
          <mxGeometry width="50" height="50" relative="1" as="geometry">
            <mxPoint x="652" y="233.39999999999998" as="sourcePoint" />
            <mxPoint x="615.6200000000001" y="207.39999999999998" as="targetPoint" />
          </mxGeometry>
        </mxCell>
        <mxCell id="XLAeXqXStdWNL6sDproD-37" value="" style="endArrow=none;html=1;rounded=0;exitX=0.488;exitY=-0.06;exitDx=0;exitDy=0;exitPerimeter=0;entryX=0.118;entryY=1.067;entryDx=0;entryDy=0;entryPerimeter=0;" edge="1" parent="1" source="XLAeXqXStdWNL6sDproD-13" target="XLAeXqXStdWNL6sDproD-8">
          <mxGeometry width="50" height="50" relative="1" as="geometry">
            <mxPoint x="662" y="243.39999999999998" as="sourcePoint" />
            <mxPoint x="625.6200000000001" y="217.39999999999998" as="targetPoint" />
          </mxGeometry>
        </mxCell>
        <mxCell id="XLAeXqXStdWNL6sDproD-38" value="" style="endArrow=none;html=1;rounded=0;exitX=0.521;exitY=-0.06;exitDx=0;exitDy=0;exitPerimeter=0;entryX=0.487;entryY=1.043;entryDx=0;entryDy=0;entryPerimeter=0;" edge="1" parent="1" source="XLAeXqXStdWNL6sDproD-15" target="XLAeXqXStdWNL6sDproD-8">
          <mxGeometry width="50" height="50" relative="1" as="geometry">
            <mxPoint x="672" y="253.39999999999998" as="sourcePoint" />
            <mxPoint x="635.6200000000001" y="227.39999999999998" as="targetPoint" />
          </mxGeometry>
        </mxCell>
        <mxCell id="XLAeXqXStdWNL6sDproD-39" value="" style="endArrow=none;html=1;rounded=0;exitX=0.841;exitY=-0.083;exitDx=0;exitDy=0;exitPerimeter=0;entryX=0.755;entryY=1.019;entryDx=0;entryDy=0;entryPerimeter=0;" edge="1" parent="1" source="XLAeXqXStdWNL6sDproD-16" target="XLAeXqXStdWNL6sDproD-8">
          <mxGeometry width="50" height="50" relative="1" as="geometry">
            <mxPoint x="682" y="263.4" as="sourcePoint" />
            <mxPoint x="645.6200000000001" y="237.39999999999998" as="targetPoint" />
          </mxGeometry>
        </mxCell>
        <mxCell id="XLAeXqXStdWNL6sDproD-40" value="" style="curved=1;endArrow=none;html=1;rounded=0;exitX=0.487;exitY=0.021;exitDx=0;exitDy=0;exitPerimeter=0;entryX=0.677;entryY=1.019;entryDx=0;entryDy=0;entryPerimeter=0;" edge="1" parent="1" source="XLAeXqXStdWNL6sDproD-17" target="XLAeXqXStdWNL6sDproD-8">
          <mxGeometry width="50" height="50" relative="1" as="geometry">
            <mxPoint x="730" y="270" as="sourcePoint" />
            <mxPoint x="780" y="220" as="targetPoint" />
            <Array as="points">
              <mxPoint x="820" y="260" />
            </Array>
          </mxGeometry>
        </mxCell>
        <mxCell id="XLAeXqXStdWNL6sDproD-41" value="" style="endArrow=none;html=1;rounded=0;exitX=0.151;exitY=-0.012;exitDx=0;exitDy=0;exitPerimeter=0;entryX=0.612;entryY=0.971;entryDx=0;entryDy=0;entryPerimeter=0;" edge="1" parent="1" source="XLAeXqXStdWNL6sDproD-16" target="XLAeXqXStdWNL6sDproD-8">
          <mxGeometry width="50" height="50" relative="1" as="geometry">
            <mxPoint x="692" y="273.4" as="sourcePoint" />
            <mxPoint x="655.6200000000001" y="247.39999999999998" as="targetPoint" />
          </mxGeometry>
        </mxCell>
        <mxCell id="XLAeXqXStdWNL6sDproD-42" value="" style="endArrow=none;html=1;rounded=0;exitX=0.442;exitY=-0.008;exitDx=0;exitDy=0;exitPerimeter=0;entryX=0.389;entryY=0.983;entryDx=0;entryDy=0;entryPerimeter=0;" edge="1" parent="1" source="XLAeXqXStdWNL6sDproD-18" target="XLAeXqXStdWNL6sDproD-17">
          <mxGeometry width="50" height="50" relative="1" as="geometry">
            <mxPoint x="702" y="283.4" as="sourcePoint" />
            <mxPoint x="665.6200000000001" y="257.4" as="targetPoint" />
          </mxGeometry>
        </mxCell>
        <mxCell id="XLAeXqXStdWNL6sDproD-43" value="" style="endArrow=none;html=1;rounded=0;exitX=0.505;exitY=-0.05;exitDx=0;exitDy=0;exitPerimeter=0;entryX=0.486;entryY=1.025;entryDx=0;entryDy=0;entryPerimeter=0;" edge="1" parent="1" source="XLAeXqXStdWNL6sDproD-19" target="XLAeXqXStdWNL6sDproD-17">
          <mxGeometry width="50" height="50" relative="1" as="geometry">
            <mxPoint x="712" y="293.4" as="sourcePoint" />
            <mxPoint x="675.6200000000001" y="267.4" as="targetPoint" />
          </mxGeometry>
        </mxCell>
        <mxCell id="XLAeXqXStdWNL6sDproD-44" value="" style="endArrow=none;html=1;rounded=0;exitX=0.473;exitY=-0.133;exitDx=0;exitDy=0;exitPerimeter=0;entryX=0.444;entryY=1.108;entryDx=0;entryDy=0;entryPerimeter=0;" edge="1" parent="1" source="XLAeXqXStdWNL6sDproD-20" target="XLAeXqXStdWNL6sDproD-17">
          <mxGeometry width="50" height="50" relative="1" as="geometry">
            <mxPoint x="722" y="303.4" as="sourcePoint" />
            <mxPoint x="685.6200000000001" y="277.4" as="targetPoint" />
          </mxGeometry>
        </mxCell>
        <mxCell id="XLAeXqXStdWNL6sDproD-45" value="" style="endArrow=none;html=1;rounded=0;exitX=0.552;exitY=-0.092;exitDx=0;exitDy=0;exitPerimeter=0;entryX=0.444;entryY=0.983;entryDx=0;entryDy=0;entryPerimeter=0;" edge="1" parent="1" source="XLAeXqXStdWNL6sDproD-21" target="XLAeXqXStdWNL6sDproD-17">
          <mxGeometry width="50" height="50" relative="1" as="geometry">
            <mxPoint x="732" y="313.4" as="sourcePoint" />
            <mxPoint x="810" y="310" as="targetPoint" />
          </mxGeometry>
        </mxCell>
        <mxCell id="XLAeXqXStdWNL6sDproD-46" value="" style="endArrow=none;html=1;rounded=0;exitX=0.486;exitY=1.025;exitDx=0;exitDy=0;exitPerimeter=0;entryX=0.519;entryY=-0.217;entryDx=0;entryDy=0;entryPerimeter=0;" edge="1" parent="1" source="XLAeXqXStdWNL6sDproD-17" target="XLAeXqXStdWNL6sDproD-22">
          <mxGeometry width="50" height="50" relative="1" as="geometry">
            <mxPoint x="742" y="323.4" as="sourcePoint" />
            <mxPoint x="705.6200000000001" y="297.4" as="targetPoint" />
          </mxGeometry>
        </mxCell>
        <mxCell id="XLAeXqXStdWNL6sDproD-47" value="" style="endArrow=none;html=1;rounded=0;exitX=0.444;exitY=1.067;exitDx=0;exitDy=0;exitPerimeter=0;entryX=0.546;entryY=-0.092;entryDx=0;entryDy=0;entryPerimeter=0;" edge="1" parent="1" source="XLAeXqXStdWNL6sDproD-17" target="XLAeXqXStdWNL6sDproD-23">
          <mxGeometry width="50" height="50" relative="1" as="geometry">
            <mxPoint x="752" y="333.4" as="sourcePoint" />
            <mxPoint x="715.6200000000001" y="307.4" as="targetPoint" />
          </mxGeometry>
        </mxCell>
        <mxCell id="XLAeXqXStdWNL6sDproD-48" value="" style="endArrow=none;html=1;rounded=0;exitX=0.493;exitY=1.075;exitDx=0;exitDy=0;exitPerimeter=0;entryX=0.464;entryY=-0.017;entryDx=0;entryDy=0;entryPerimeter=0;" edge="1" parent="1" source="XLAeXqXStdWNL6sDproD-19" target="XLAeXqXStdWNL6sDproD-24">
          <mxGeometry width="50" height="50" relative="1" as="geometry">
            <mxPoint x="762" y="343.4" as="sourcePoint" />
            <mxPoint x="725.6200000000001" y="317.4" as="targetPoint" />
          </mxGeometry>
        </mxCell>
        <mxCell id="XLAeXqXStdWNL6sDproD-49" value="" style="endArrow=none;html=1;rounded=0;exitX=0.542;exitY=1.158;exitDx=0;exitDy=0;exitPerimeter=0;entryX=0.496;entryY=-0.142;entryDx=0;entryDy=0;entryPerimeter=0;" edge="1" parent="1" source="XLAeXqXStdWNL6sDproD-21" target="XLAeXqXStdWNL6sDproD-25">
          <mxGeometry width="50" height="50" relative="1" as="geometry">
            <mxPoint x="772" y="353.4" as="sourcePoint" />
            <mxPoint x="735.6200000000001" y="327.4" as="targetPoint" />
          </mxGeometry>
        </mxCell>
        <mxCell id="XLAeXqXStdWNL6sDproD-50" value="" style="endArrow=none;html=1;rounded=0;exitX=0.265;exitY=0.95;exitDx=0;exitDy=0;exitPerimeter=0;entryX=0.49;entryY=-0.1;entryDx=0;entryDy=0;entryPerimeter=0;" edge="1" parent="1" source="XLAeXqXStdWNL6sDproD-23" target="XLAeXqXStdWNL6sDproD-26">
          <mxGeometry width="50" height="50" relative="1" as="geometry">
            <mxPoint x="782" y="363.4" as="sourcePoint" />
            <mxPoint x="745.6200000000001" y="337.4" as="targetPoint" />
          </mxGeometry>
        </mxCell>
        <mxCell id="XLAeXqXStdWNL6sDproD-51" value="" style="endArrow=none;html=1;rounded=0;entryX=0.571;entryY=-0.017;entryDx=0;entryDy=0;entryPerimeter=0;exitX=0.463;exitY=1.075;exitDx=0;exitDy=0;exitPerimeter=0;" edge="1" parent="1" source="XLAeXqXStdWNL6sDproD-23" target="XLAeXqXStdWNL6sDproD-27">
          <mxGeometry width="50" height="50" relative="1" as="geometry">
            <mxPoint x="792" y="370" as="sourcePoint" />
            <mxPoint x="755.6200000000001" y="347.4" as="targetPoint" />
          </mxGeometry>
        </mxCell>
        <mxCell id="XLAeXqXStdWNL6sDproD-52" value="" style="endArrow=none;html=1;rounded=0;exitX=0.481;exitY=-0.017;exitDx=0;exitDy=0;exitPerimeter=0;entryX=0.619;entryY=1.075;entryDx=0;entryDy=0;entryPerimeter=0;" edge="1" parent="1" source="XLAeXqXStdWNL6sDproD-28" target="XLAeXqXStdWNL6sDproD-23">
          <mxGeometry width="50" height="50" relative="1" as="geometry">
            <mxPoint x="802" y="383.4" as="sourcePoint" />
            <mxPoint x="765.6200000000001" y="357.4" as="targetPoint" />
          </mxGeometry>
        </mxCell>
      </root>
    </mxGraphModel>
  </diagram>
</mxfile>
